<?xml version="1.0" encoding="utf-8"?>
<!-- Generator: Adobe Illustrator 23.0.4, SVG Export Plug-In . SVG Version: 6.00 Build 0)  -->
<svg version="1.1" id="vcard-frame" xmlns="http://www.w3.org/2000/svg" xmlns:xlink="http://www.w3.org/1999/xlink" x="0px"
	 y="0px" viewBox="0 0 279 361.7" style="enable-background:new 0 0 279 361.7;" xml:space="preserve">
<style type="text/css">
	.frame-color{fill:#000000;}
	.background-color{fill:#ffffff;}
	.text-color{fill:#FFFFFF;}
	.icon-color{fill:#000000;opacity:1;}
	.icon-black{fill:#000000;opacity:0}

	.circle-color{fill:#000000;}
	.circle-color-black{fill:#FFFFFF;}
	.circle-outline{fill:#000000;opacity:0}

	.show_on_light{opacity:0;}
	.hide_on_light{opacity:1;}
</style>

<svg xmlns="http://www.w3.org/2000/svg" xmlns:xlink="http://www.w3.org/1999/xlink" version="1.1" width="259.8" height="259.8" viewBox="0 0 2000 2000" x="9.6" y="9.6" shape-rendering="crispEdges"><defs/><rect x="0" y="0" width="2000" height="2000" fill="#ffffff"/><rect x="629" y="173" width="57" height="57" fill="#000000"/><rect x="914" y="173" width="57" height="57" fill="#000000"/><rect x="971" y="173" width="57" height="57" fill="#000000"/><rect x="1028" y="173" width="57" height="57" fill="#000000"/><rect x="1085" y="173" width="57" height="57" fill="#000000"/><rect x="629" y="230" width="57" height="57" fill="#000000"/><rect x="800" y="230" width="57" height="57" fill="#000000"/><rect x="971" y="230" width="57" height="57" fill="#000000"/><rect x="1085" y="230" width="57" height="57" fill="#000000"/><rect x="1142" y="230" width="57" height="57" fill="#000000"/><rect x="1256" y="230" width="57" height="57" fill="#000000"/><rect x="1313" y="230" width="57" height="57" fill="#000000"/><rect x="629" y="287" width="57" height="57" fill="#000000"/><rect x="686" y="287" width="57" height="57" fill="#000000"/><rect x="800" y="287" width="57" height="57" fill="#000000"/><rect x="914" y="287" width="57" height="57" fill="#000000"/><rect x="1028" y="287" width="57" height="57" fill="#000000"/><rect x="1313" y="287" width="57" height="57" fill="#000000"/><rect x="743" y="344" width="57" height="57" fill="#000000"/><rect x="914" y="344" width="57" height="57" fill="#000000"/><rect x="971" y="344" width="57" height="57" fill="#000000"/><rect x="1028" y="344" width="57" height="57" fill="#000000"/><rect x="1142" y="344" width="57" height="57" fill="#000000"/><rect x="1199" y="344" width="57" height="57" fill="#000000"/><rect x="1313" y="344" width="57" height="57" fill="#000000"/><rect x="743" y="401" width="57" height="57" fill="#000000"/><rect x="857" y="401" width="57" height="57" fill="#000000"/><rect x="914" y="401" width="57" height="57" fill="#000000"/><rect x="1199" y="401" width="57" height="57" fill="#000000"/><rect x="629" y="458" width="57" height="57" fill="#000000"/><rect x="743" y="458" width="57" height="57" fill="#000000"/><rect x="857" y="458" width="57" height="57" fill="#000000"/><rect x="914" y="458" width="57" height="57" fill="#000000"/><rect x="971" y="458" width="57" height="57" fill="#000000"/><rect x="1028" y="458" width="57" height="57" fill="#000000"/><rect x="1199" y="458" width="57" height="57" fill="#000000"/><rect x="1313" y="458" width="57" height="57" fill="#000000"/><rect x="629" y="515" width="57" height="57" fill="#000000"/><rect x="743" y="515" width="57" height="57" fill="#000000"/><rect x="857" y="515" width="57" height="57" fill="#000000"/><rect x="971" y="515" width="57" height="57" fill="#000000"/><rect x="1085" y="515" width="57" height="57" fill="#000000"/><rect x="1199" y="515" width="57" height="57" fill="#000000"/><rect x="1313" y="515" width="57" height="57" fill="#000000"/><rect x="629" y="572" width="57" height="57" fill="#000000"/><rect x="743" y="572" width="57" height="57" fill="#000000"/><rect x="1028" y="572" width="57" height="57" fill="#000000"/><rect x="1085" y="572" width="57" height="57" fill="#000000"/><rect x="1199" y="572" width="57" height="57" fill="#000000"/><rect x="1256" y="572" width="57" height="57" fill="#000000"/><rect x="1313" y="572" width="57" height="57" fill="#000000"/><rect x="287" y="629" width="57" height="57" fill="#000000"/><rect x="344" y="629" width="57" height="57" fill="#000000"/><rect x="401" y="629" width="57" height="57" fill="#000000"/><rect x="515" y="629" width="57" height="57" fill="#000000"/><rect x="629" y="629" width="57" height="57" fill="#000000"/><rect x="743" y="629" width="57" height="57" fill="#000000"/><rect x="800" y="629" width="57" height="57" fill="#000000"/><rect x="857" y="629" width="57" height="57" fill="#000000"/><rect x="914" y="629" width="57" height="57" fill="#000000"/><rect x="971" y="629" width="57" height="57" fill="#000000"/><rect x="1199" y="629" width="57" height="57" fill="#000000"/><rect x="1313" y="629" width="57" height="57" fill="#000000"/><rect x="1370" y="629" width="57" height="57" fill="#000000"/><rect x="1427" y="629" width="57" height="57" fill="#000000"/><rect x="1484" y="629" width="57" height="57" fill="#000000"/><rect x="1655" y="629" width="57" height="57" fill="#000000"/><rect x="1712" y="629" width="57" height="57" fill="#000000"/><rect x="1769" y="629" width="57" height="57" fill="#000000"/><rect x="173" y="686" width="57" height="57" fill="#000000"/><rect x="287" y="686" width="57" height="57" fill="#000000"/><rect x="401" y="686" width="57" height="57" fill="#000000"/><rect x="458" y="686" width="57" height="57" fill="#000000"/><rect x="572" y="686" width="57" height="57" fill="#000000"/><rect x="1370" y="686" width="57" height="57" fill="#000000"/><rect x="1427" y="686" width="57" height="57" fill="#000000"/><rect x="1541" y="686" width="57" height="57" fill="#000000"/><rect x="1712" y="686" width="57" height="57" fill="#000000"/><rect x="1769" y="686" width="57" height="57" fill="#000000"/><rect x="230" y="743" width="57" height="57" fill="#000000"/><rect x="287" y="743" width="57" height="57" fill="#000000"/><rect x="344" y="743" width="57" height="57" fill="#000000"/><rect x="401" y="743" width="57" height="57" fill="#000000"/><rect x="458" y="743" width="57" height="57" fill="#000000"/><rect x="515" y="743" width="57" height="57" fill="#000000"/><rect x="572" y="743" width="57" height="57" fill="#000000"/><rect x="629" y="743" width="57" height="57" fill="#000000"/><rect x="1655" y="743" width="57" height="57" fill="#000000"/><rect x="287" y="800" width="57" height="57" fill="#000000"/><rect x="344" y="800" width="57" height="57" fill="#000000"/><rect x="401" y="800" width="57" height="57" fill="#000000"/><rect x="458" y="800" width="57" height="57" fill="#000000"/><rect x="572" y="800" width="57" height="57" fill="#000000"/><rect x="1313" y="800" width="57" height="57" fill="#000000"/><rect x="1427" y="800" width="57" height="57" fill="#000000"/><rect x="1484" y="800" width="57" height="57" fill="#000000"/><rect x="1541" y="800" width="57" height="57" fill="#000000"/><rect x="1598" y="800" width="57" height="57" fill="#000000"/><rect x="1655" y="800" width="57" height="57" fill="#000000"/><rect x="173" y="857" width="57" height="57" fill="#000000"/><rect x="230" y="857" width="57" height="57" fill="#000000"/><rect x="287" y="857" width="57" height="57" fill="#000000"/><rect x="458" y="857" width="57" height="57" fill="#000000"/><rect x="515" y="857" width="57" height="57" fill="#000000"/><rect x="1313" y="857" width="57" height="57" fill="#000000"/><rect x="1370" y="857" width="57" height="57" fill="#000000"/><rect x="1541" y="857" width="57" height="57" fill="#000000"/><rect x="1655" y="857" width="57" height="57" fill="#000000"/><rect x="1712" y="857" width="57" height="57" fill="#000000"/><rect x="401" y="914" width="57" height="57" fill="#000000"/><rect x="572" y="914" width="57" height="57" fill="#000000"/><rect x="629" y="914" width="57" height="57" fill="#000000"/><rect x="1313" y="914" width="57" height="57" fill="#000000"/><rect x="1427" y="914" width="57" height="57" fill="#000000"/><rect x="1541" y="914" width="57" height="57" fill="#000000"/><rect x="1598" y="914" width="57" height="57" fill="#000000"/><rect x="1769" y="914" width="57" height="57" fill="#000000"/><rect x="173" y="971" width="57" height="57" fill="#000000"/><rect x="344" y="971" width="57" height="57" fill="#000000"/><rect x="401" y="971" width="57" height="57" fill="#000000"/><rect x="515" y="971" width="57" height="57" fill="#000000"/><rect x="572" y="971" width="57" height="57" fill="#000000"/><rect x="629" y="971" width="57" height="57" fill="#000000"/><rect x="1484" y="971" width="57" height="57" fill="#000000"/><rect x="1655" y="971" width="57" height="57" fill="#000000"/><rect x="1769" y="971" width="57" height="57" fill="#000000"/><rect x="173" y="1028" width="57" height="57" fill="#000000"/><rect x="230" y="1028" width="57" height="57" fill="#000000"/><rect x="287" y="1028" width="57" height="57" fill="#000000"/><rect x="458" y="1028" width="57" height="57" fill="#000000"/><rect x="572" y="1028" width="57" height="57" fill="#000000"/><rect x="1370" y="1028" width="57" height="57" fill="#000000"/><rect x="1427" y="1028" width="57" height="57" fill="#000000"/><rect x="1484" y="1028" width="57" height="57" fill="#000000"/><rect x="1541" y="1028" width="57" height="57" fill="#000000"/><rect x="1655" y="1028" width="57" height="57" fill="#000000"/><rect x="1712" y="1028" width="57" height="57" fill="#000000"/><rect x="1769" y="1028" width="57" height="57" fill="#000000"/><rect x="230" y="1085" width="57" height="57" fill="#000000"/><rect x="401" y="1085" width="57" height="57" fill="#000000"/><rect x="458" y="1085" width="57" height="57" fill="#000000"/><rect x="515" y="1085" width="57" height="57" fill="#000000"/><rect x="572" y="1085" width="57" height="57" fill="#000000"/><rect x="1313" y="1085" width="57" height="57" fill="#000000"/><rect x="1484" y="1085" width="57" height="57" fill="#000000"/><rect x="173" y="1142" width="57" height="57" fill="#000000"/><rect x="230" y="1142" width="57" height="57" fill="#000000"/><rect x="287" y="1142" width="57" height="57" fill="#000000"/><rect x="629" y="1142" width="57" height="57" fill="#000000"/><rect x="1484" y="1142" width="57" height="57" fill="#000000"/><rect x="1598" y="1142" width="57" height="57" fill="#000000"/><rect x="1712" y="1142" width="57" height="57" fill="#000000"/><rect x="173" y="1199" width="57" height="57" fill="#000000"/><rect x="401" y="1199" width="57" height="57" fill="#000000"/><rect x="515" y="1199" width="57" height="57" fill="#000000"/><rect x="572" y="1199" width="57" height="57" fill="#000000"/><rect x="629" y="1199" width="57" height="57" fill="#000000"/><rect x="1313" y="1199" width="57" height="57" fill="#000000"/><rect x="1370" y="1199" width="57" height="57" fill="#000000"/><rect x="1655" y="1199" width="57" height="57" fill="#000000"/><rect x="173" y="1256" width="57" height="57" fill="#000000"/><rect x="287" y="1256" width="57" height="57" fill="#000000"/><rect x="458" y="1256" width="57" height="57" fill="#000000"/><rect x="572" y="1256" width="57" height="57" fill="#000000"/><rect x="629" y="1256" width="57" height="57" fill="#000000"/><rect x="1313" y="1256" width="57" height="57" fill="#000000"/><rect x="1427" y="1256" width="57" height="57" fill="#000000"/><rect x="1541" y="1256" width="57" height="57" fill="#000000"/><rect x="1598" y="1256" width="57" height="57" fill="#000000"/><rect x="1712" y="1256" width="57" height="57" fill="#000000"/><rect x="1769" y="1256" width="57" height="57" fill="#000000"/><rect x="173" y="1313" width="57" height="57" fill="#000000"/><rect x="287" y="1313" width="57" height="57" fill="#000000"/><rect x="344" y="1313" width="57" height="57" fill="#000000"/><rect x="515" y="1313" width="57" height="57" fill="#000000"/><rect x="572" y="1313" width="57" height="57" fill="#000000"/><rect x="857" y="1313" width="57" height="57" fill="#000000"/><rect x="914" y="1313" width="57" height="57" fill="#000000"/><rect x="1199" y="1313" width="57" height="57" fill="#000000"/><rect x="1313" y="1313" width="57" height="57" fill="#000000"/><rect x="1370" y="1313" width="57" height="57" fill="#000000"/><rect x="1427" y="1313" width="57" height="57" fill="#000000"/><rect x="1484" y="1313" width="57" height="57" fill="#000000"/><rect x="1541" y="1313" width="57" height="57" fill="#000000"/><rect x="1712" y="1313" width="57" height="57" fill="#000000"/><rect x="1769" y="1313" width="57" height="57" fill="#000000"/><rect x="629" y="1370" width="57" height="57" fill="#000000"/><rect x="686" y="1370" width="57" height="57" fill="#000000"/><rect x="857" y="1370" width="57" height="57" fill="#000000"/><rect x="914" y="1370" width="57" height="57" fill="#000000"/><rect x="971" y="1370" width="57" height="57" fill="#000000"/><rect x="1028" y="1370" width="57" height="57" fill="#000000"/><rect x="1085" y="1370" width="57" height="57" fill="#000000"/><rect x="1142" y="1370" width="57" height="57" fill="#000000"/><rect x="1199" y="1370" width="57" height="57" fill="#000000"/><rect x="1256" y="1370" width="57" height="57" fill="#000000"/><rect x="1313" y="1370" width="57" height="57" fill="#000000"/><rect x="1541" y="1370" width="57" height="57" fill="#000000"/><rect x="1598" y="1370" width="57" height="57" fill="#000000"/><rect x="1769" y="1370" width="57" height="57" fill="#000000"/><rect x="686" y="1427" width="57" height="57" fill="#000000"/><rect x="743" y="1427" width="57" height="57" fill="#000000"/><rect x="914" y="1427" width="57" height="57" fill="#000000"/><rect x="971" y="1427" width="57" height="57" fill="#000000"/><rect x="1142" y="1427" width="57" height="57" fill="#000000"/><rect x="1256" y="1427" width="57" height="57" fill="#000000"/><rect x="1313" y="1427" width="57" height="57" fill="#000000"/><rect x="1427" y="1427" width="57" height="57" fill="#000000"/><rect x="1541" y="1427" width="57" height="57" fill="#000000"/><rect x="1598" y="1427" width="57" height="57" fill="#000000"/><rect x="1655" y="1427" width="57" height="57" fill="#000000"/><rect x="1712" y="1427" width="57" height="57" fill="#000000"/><rect x="971" y="1484" width="57" height="57" fill="#000000"/><rect x="1142" y="1484" width="57" height="57" fill="#000000"/><rect x="1199" y="1484" width="57" height="57" fill="#000000"/><rect x="1256" y="1484" width="57" height="57" fill="#000000"/><rect x="1313" y="1484" width="57" height="57" fill="#000000"/><rect x="1541" y="1484" width="57" height="57" fill="#000000"/><rect x="1598" y="1484" width="57" height="57" fill="#000000"/><rect x="1712" y="1484" width="57" height="57" fill="#000000"/><rect x="1769" y="1484" width="57" height="57" fill="#000000"/><rect x="629" y="1541" width="57" height="57" fill="#000000"/><rect x="743" y="1541" width="57" height="57" fill="#000000"/><rect x="800" y="1541" width="57" height="57" fill="#000000"/><rect x="1028" y="1541" width="57" height="57" fill="#000000"/><rect x="1085" y="1541" width="57" height="57" fill="#000000"/><rect x="1256" y="1541" width="57" height="57" fill="#000000"/><rect x="1313" y="1541" width="57" height="57" fill="#000000"/><rect x="1370" y="1541" width="57" height="57" fill="#000000"/><rect x="1427" y="1541" width="57" height="57" fill="#000000"/><rect x="1484" y="1541" width="57" height="57" fill="#000000"/><rect x="1541" y="1541" width="57" height="57" fill="#000000"/><rect x="629" y="1598" width="57" height="57" fill="#000000"/><rect x="686" y="1598" width="57" height="57" fill="#000000"/><rect x="743" y="1598" width="57" height="57" fill="#000000"/><rect x="857" y="1598" width="57" height="57" fill="#000000"/><rect x="914" y="1598" width="57" height="57" fill="#000000"/><rect x="1142" y="1598" width="57" height="57" fill="#000000"/><rect x="1199" y="1598" width="57" height="57" fill="#000000"/><rect x="1313" y="1598" width="57" height="57" fill="#000000"/><rect x="1370" y="1598" width="57" height="57" fill="#000000"/><rect x="1427" y="1598" width="57" height="57" fill="#000000"/><rect x="1541" y="1598" width="57" height="57" fill="#000000"/><rect x="1598" y="1598" width="57" height="57" fill="#000000"/><rect x="629" y="1655" width="57" height="57" fill="#000000"/><rect x="686" y="1655" width="57" height="57" fill="#000000"/><rect x="857" y="1655" width="57" height="57" fill="#000000"/><rect x="914" y="1655" width="57" height="57" fill="#000000"/><rect x="971" y="1655" width="57" height="57" fill="#000000"/><rect x="1028" y="1655" width="57" height="57" fill="#000000"/><rect x="1142" y="1655" width="57" height="57" fill="#000000"/><rect x="1199" y="1655" width="57" height="57" fill="#000000"/><rect x="1370" y="1655" width="57" height="57" fill="#000000"/><rect x="1427" y="1655" width="57" height="57" fill="#000000"/><rect x="1484" y="1655" width="57" height="57" fill="#000000"/><rect x="1541" y="1655" width="57" height="57" fill="#000000"/><rect x="1655" y="1655" width="57" height="57" fill="#000000"/><rect x="1712" y="1655" width="57" height="57" fill="#000000"/><rect x="686" y="1712" width="57" height="57" fill="#000000"/><rect x="800" y="1712" width="57" height="57" fill="#000000"/><rect x="857" y="1712" width="57" height="57" fill="#000000"/><rect x="971" y="1712" width="57" height="57" fill="#000000"/><rect x="1142" y="1712" width="57" height="57" fill="#000000"/><rect x="1199" y="1712" width="57" height="57" fill="#000000"/><rect x="1256" y="1712" width="57" height="57" fill="#000000"/><rect x="1484" y="1712" width="57" height="57" fill="#000000"/><rect x="1598" y="1712" width="57" height="57" fill="#000000"/><rect x="1769" y="1712" width="57" height="57" fill="#000000"/><rect x="743" y="1769" width="57" height="57" fill="#000000"/><rect x="800" y="1769" width="57" height="57" fill="#000000"/><rect x="971" y="1769" width="57" height="57" fill="#000000"/><rect x="1142" y="1769" width="57" height="57" fill="#000000"/><rect x="1199" y="1769" width="57" height="57" fill="#000000"/><rect x="1256" y="1769" width="57" height="57" fill="#000000"/><rect x="1484" y="1769" width="57" height="57" fill="#000000"/><rect x="1541" y="1769" width="57" height="57" fill="#000000"/><rect x="1598" y="1769" width="57" height="57" fill="#000000"/><svg version="1.1" id="Ebene_1" x="173" y="173" viewBox="0 0 700 700" style="enable-background:new 0 0 700 700;" xml:space="preserve" width="399" height="399" shape-rendering="auto">

<path fill="#000000" d="M21.2-0.1C9.5-0.1-0.1,9.5-0.1,21.2v78.8v100v100v100v100v100v78.8c0,11.7,9.5,21.3,21.3,21.3h657.6  c11.7,0,21.3-9.5,21.3-21.3V600V500V400V300V200v-100V21.2c0-11.7-9.5-21.3-21.3-21.3H21.2z M600,200v100v100v100v87.8  c0,6.8-5.5,12.2-12.2,12.2H112.2c-6.8,0-12.2-5.5-12.2-12.2V500V400V300V200v-87.8c0-6.8,5.5-12.2,12.2-12.2h475.6  c6.8,0,12.2,5.5,12.2,12.2V200z"/>
</svg>
<svg version="1.1" id="Ebene_1" x="173" y="173" viewBox="0 0 700 700" style="enable-background:new 0 0 700 700;" xml:space="preserve" width="399" height="399" shape-rendering="auto">

<path fill="#000000" d="M500,400V300v-78.8c0-11.7-9.5-21.3-21.3-21.3H221.2c-11.7,0-21.3,9.5-21.3,21.3V300v100v78.8    c0,11.7,9.5,21.3,21.3,21.3h257.5c11.7,0,21.3-9.5,21.3-21.3V400z"/>
</svg>
<svg version="1.1" id="Ebene_1" x="1427" y="173" viewBox="0 0 700 700" style="enable-background:new 0 0 700 700;" xml:space="preserve" width="399" height="399" shape-rendering="auto">

<path fill="#000000" d="M21.2-0.1C9.5-0.1-0.1,9.5-0.1,21.2v78.8v100v100v100v100v100v78.8c0,11.7,9.5,21.3,21.3,21.3h657.6  c11.7,0,21.3-9.5,21.3-21.3V600V500V400V300V200v-100V21.2c0-11.7-9.5-21.3-21.3-21.3H21.2z M600,200v100v100v100v87.8  c0,6.8-5.5,12.2-12.2,12.2H112.2c-6.8,0-12.2-5.5-12.2-12.2V500V400V300V200v-87.8c0-6.8,5.5-12.2,12.2-12.2h475.6  c6.8,0,12.2,5.5,12.2,12.2V200z"/>
</svg>
<svg version="1.1" id="Ebene_1" x="1427" y="173" viewBox="0 0 700 700" style="enable-background:new 0 0 700 700;" xml:space="preserve" width="399" height="399" shape-rendering="auto">

<path fill="#000000" d="M500,400V300v-78.8c0-11.7-9.5-21.3-21.3-21.3H221.2c-11.7,0-21.3,9.5-21.3,21.3V300v100v78.8    c0,11.7,9.5,21.3,21.3,21.3h257.5c11.7,0,21.3-9.5,21.3-21.3V400z"/>
</svg>
<svg version="1.1" id="Ebene_1" x="173" y="1427" viewBox="0 0 700 700" style="enable-background:new 0 0 700 700;" xml:space="preserve" width="399" height="399" shape-rendering="auto">

<path fill="#000000" d="M21.2-0.1C9.5-0.1-0.1,9.5-0.1,21.2v78.8v100v100v100v100v100v78.8c0,11.7,9.5,21.3,21.3,21.3h657.6  c11.7,0,21.3-9.5,21.3-21.3V600V500V400V300V200v-100V21.2c0-11.7-9.5-21.3-21.3-21.3H21.2z M600,200v100v100v100v87.8  c0,6.8-5.5,12.2-12.2,12.2H112.2c-6.8,0-12.2-5.5-12.2-12.2V500V400V300V200v-87.8c0-6.8,5.5-12.2,12.2-12.2h475.6  c6.8,0,12.2,5.5,12.2,12.2V200z"/>
</svg>
<svg version="1.1" id="Ebene_1" x="173" y="1427" viewBox="0 0 700 700" style="enable-background:new 0 0 700 700;" xml:space="preserve" width="399" height="399" shape-rendering="auto">

<path fill="#000000" d="M500,400V300v-78.8c0-11.7-9.5-21.3-21.3-21.3H221.2c-11.7,0-21.3,9.5-21.3,21.3V300v100v78.8    c0,11.7,9.5,21.3,21.3,21.3h257.5c11.7,0,21.3-9.5,21.3-21.3V400z"/>
</svg>
<svg version="1.0" width="570" height="570" viewBox="0 0 720.000000 720.000000" preserveAspectRatio="xMidYMid meet" x="714" y="714" shape-rendering="auto">
<metadata>
Created by potrace 1.16, written by Peter Selinger 2001-2019
</metadata>
<g transform="translate(0.000000,720.000000) scale(0.100000,-0.100000)" fill=" 000000" stroke="none">
<path d="M3611 7117 c-53 -86 -165 -163 -371 -257 -350 -159 -489 -245 -646 -404 -60 -61 -134 -147 -163 -191 -148 -225 -244 -521 -285 -874 -9 -74 -15 -135 -13 -136 1 -1 52 -28 114 -59 351 -179 802 -559 1141 -963 42 -50 79 -92 82 -92 3 -1 36 305 74 679 79 789 78 772 82 767 2 -2 33 -325 69 -718 36 -393 66 -718 68 -723 1 -4 34 27 72 70 109 125 380 397 495 498 242 213 494 386 730 501 l56 27 -8 87 c-42 487 -187 855 -438 1115 -146 151 -293 247 -594 388 -265 124 -354 183 -414 273 l-30 45 -21 -33z m18 -179 c-30 -55 -150 -163 -349 -312 -417 -311 -605 -541 -713 -871 -49 -148 -86 -357 -87 -482 0 -35 -4 -63 -10 -63 -5 0 -55 26 -110 57 -115 66 -109 52 -85 216 74 491 268 835 591 1050 55 37 177 103 270 147 291 139 369 180 435 230 35 27 65 49 67 50 1 0 -3 -10 -9 -22z"/>
<path d="M1151 5295 c-219 -33 -459 -106 -756 -227 -217 -89 -350 -138 -377 -138 -17 0 -19 -4 -14 -32 3 -18 17 -118 31 -223 120 -901 339 -1395 735 -1655 324 -212 895 -404 1405 -472 109 -14 575 -18 636 -5 33 7 42 16 84 90 43 75 46 84 35 112 -45 113 -62 187 -67 280 -5 95 -1 122 34 271 4 17 -5 27 -44 51 -26 17 -320 198 -653 403 -333 204 -609 377 -615 383 -7 6 -7 8 0 5 6 -3 338 -135 738 -292 l728 -287 75 60 c116 94 241 146 396 166 l48 6 -63 81 c-271 351 -599 692 -882 918 -320 256 -641 424 -940 492 -118 27 -398 33 -534 13z m360 -106 c350 -35 723 -221 1124 -558 189 -159 471 -450 658 -677 l67 -82 -27 -7 c-47 -11 -186 -81 -235 -119 l-46 -36 -114 138 c-402 484 -789 814 -1183 1007 -264 130 -397 164 -661 172 -200 6 -313 -4 -500 -43 -182 -37 -185 -37 -94 1 261 110 584 193 805 208 28 2 62 4 76 5 15 1 73 -3 130 -9z"/>
<path d="M5570 5233 c-47 -8 -145 -34 -218 -58 -511 -170 -1058 -611 -1605 -1295 l-116 -145 42 -7 c188 -34 297 -79 409 -173 l67 -56 218 86 c120 47 286 113 368 145 83 32 292 115 465 183 427 169 429 170 403 151 -13 -9 -310 -193 -660 -409 -561 -346 -638 -396 -637 -417 1 -12 9 -57 19 -98 31 -135 13 -283 -55 -455 -11 -28 -8 -36 34 -110 27 -46 55 -83 69 -88 39 -16 405 -21 543 -8 383 36 781 137 1148 292 437 185 640 367 816 734 133 277 212 581 280 1075 17 124 33 239 36 256 5 29 4 31 -30 37 -20 3 -166 58 -324 121 -378 151 -601 217 -832 246 -118 14 -339 11 -440 -7z m366 -104 c216 -21 432 -76 696 -177 81 -31 146 -57 144 -59 -1 -2 -52 8 -112 22 -196 44 -339 57 -549 52 -123 -3 -216 -11 -264 -22 -511 -115 -1049 -507 -1589 -1157 l-113 -137 -46 35 c-54 41 -160 96 -220 114 l-42 13 66 81 c534 651 1117 1090 1598 1206 162 38 266 45 431 29z m-621 -1727 c-23 -20 -825 -602 -830 -602 -3 0 -4 59 -3 131 l3 131 415 174 c228 95 417 173 420 174 2 0 0 -4 -5 -8z"/>
<path d="M3470 3564 c-296 -80 -483 -367 -429 -658 6 -32 15 -70 20 -83 l9 -25 58 53 c91 83 209 150 307 173 73 18 185 24 259 15 154 -19 277 -77 397 -188 l67 -60 16 57 c25 91 22 234 -9 329 -60 189 -216 337 -410 388 -74 19 -212 18 -285 -1z"/>
<path d="M3380 2850 c-203 -97 -370 -331 -484 -680 -135 -413 -192 -942 -127 -1168 40 -136 128 -286 240 -405 68 -72 176 -160 355 -287 87 -62 176 -130 196 -150 l38 -38 45 42 c25 23 94 75 154 116 344 235 485 373 583 575 77 157 85 198 84 420 0 207 -15 343 -64 585 -88 439 -247 768 -445 917 -51 39 -175 106 -182 99 -2 -2 -37 -267 -78 -591 -41 -323 -77 -590 -80 -593 -3 -3 -5 6 -5 19 -1 13 -31 280 -68 594 -54 458 -70 570 -82 573 -8 1 -44 -12 -80 -28z"/>
<path d="M1214 2543 c-183 -220 -328 -523 -412 -863 -37 -149 -70 -348 -74 -445 l-3 -69 120 -63 c591 -307 1163 -344 1672 -107 l95 44 -6 32 c-21 118 -27 205 -22 318 13 239 48 479 102 694 14 54 23 100 21 103 -3 2 -242 -120 -532 -272 -290 -152 -529 -275 -530 -273 -1 2 199 167 444 368 l446 365 -110 7 c-351 22 -679 83 -1006 188 -70 22 -132 40 -138 40 -6 0 -36 -30 -67 -67z m806 -236 l65 -13 -40 -26 c-22 -14 -113 -73 -202 -131 -89 -58 -201 -131 -250 -162 l-88 -57 200 201 c219 221 201 209 315 188z m450 -1054 c0 -43 3 -94 6 -113 l6 -36 -89 -36 c-184 -75 -358 -108 -568 -108 -229 0 -449 44 -685 137 -102 40 -214 93 -167 79 306 -94 673 -114 961 -55 159 33 368 112 481 182 22 14 43 26 48 26 4 1 7 -34 7 -76z"/>
<path d="M5855 2534 c-86 -33 -350 -105 -487 -133 -189 -39 -337 -60 -537 -74 l-164 -12 445 -365 c245 -201 445 -366 443 -367 -1 -2 -239 121 -529 273 -290 152 -530 274 -532 271 -3 -3 6 -49 20 -103 54 -215 88 -451 102 -699 5 -107 -1 -195 -22 -312 -6 -31 -5 -32 80 -72 499 -237 1054 -209 1637 82 l164 82 -3 70 c-11 258 -115 654 -243 923 -92 194 -274 453 -317 451 -9 0 -35 -7 -57 -15z m-360 -475 l200 -201 -150 97 c-82 54 -213 139 -290 189 l-140 91 60 11 c120 23 99 35 320 -187z m-739 -798 c18 -18 210 -109 284 -136 212 -75 386 -100 653 -92 160 5 216 11 338 36 80 17 159 35 174 41 15 6 30 9 32 7 2 -3 -34 -20 -79 -40 -286 -122 -526 -177 -781 -177 -204 0 -372 32 -561 106 l-98 39 6 35 c3 19 6 70 6 113 0 74 5 88 26 68z"/>
</g>
</svg>
</svg>

<path id="FrameBody" class="frame-color" d="M243.1,289.8H35.9c-19.8,0-35.9,16.1-35.9,36l0,0c0,19.8,16.1,35.9,35.9,35.9H243
	c19.8,0,35.9-16.1,35.9-35.9l0,0C279,305.9,262.9,289.8,243.1,289.8L243.1,289.8z M265.3,0H13.7C6.1,0,0,6.1,0,13.7v251.7
	c0,7.5,6.1,13.7,13.7,13.7h251.7c7.5,0,13.7-6.1,13.7-13.7V13.7C279,6.1,272.9,0,265.3,0z M268.5,261.1c0,4.1-3.3,7.4-7.4,7.4H17.9
	c-4.1,0-7.4-3.3-7.4-7.4V17.9c0-4.1,3.3-7.4,7.4-7.4h243.2c4.1,0,7.4,3.3,7.4,7.4V261.1z"/>
<path id="IconCircle" class="circle-color show_on_light" d="M35.9,297.2c-15.8,0-28.5,12.7-28.5,28.5s12.7,28.5,28.5,28.5s28.5-12.7,28.5-28.5
	C64.4,310,51.7,297.2,35.9,297.2z"/>
<path id="IconCircle" class="circle-color-black hide_on_light" d="M35.9,297.2c-15.8,0-28.5,12.7-28.5,28.5s12.7,28.5,28.5,28.5s28.5-12.7,28.5-28.5
	C64.4,310,51.7,297.2,35.9,297.2z"/>
<path id="IconCircleOutline" class="circle-outline show_on_light" d="M35.9,299.2c14.6,0,26.5,11.9,26.5,26.5s-11.9,26.5-26.5,26.5S9.4,340.3,9.4,325.7
	S21.3,299.2,35.9,299.2 M35.9,297.2c-15.8,0-28.5,12.7-28.5,28.5s12.7,28.5,28.5,28.5s28.5-12.7,28.5-28.5
	C64.4,310,51.7,297.2,35.9,297.2L35.9,297.2z"/>
<path id="VCardIcon" class="icon-color hide_on_light" d="M49.6,319.5c0-0.9-0.7-1.6-1.6-1.6h-8c-0.9,0-1.6,0.7-1.6,1.6s0.7,1.6,1.6,1.6h7.9
	C48.8,321.2,49.6,320.4,49.6,319.5z M49.6,331.9c0-0.9-0.7-1.6-1.6-1.6h-8c-0.9,0-1.6,0.7-1.6,1.6s0.7,1.6,1.6,1.6h7.9
	C48.8,333.5,49.6,332.8,49.6,331.9z M49.6,325.6c0-0.9-0.7-1.6-1.6-1.6h-8c-0.9,0-1.6,0.7-1.6,1.6s0.7,1.6,1.6,1.6h7.9
	C48.8,327.2,49.6,326.5,49.6,325.6z M35.1,331.5v0.9c0,0.6-0.5,1-1,1H23.2c-0.6,0-1-0.5-1-1v-0.9c0-1.8,1.5-3.3,3.3-3.3h0.8
	c0.5,0,0.8-0.4,0.8-0.8c0-0.2-0.1-0.3-0.2-0.4c-0.5-0.5-1.7-1.9-1.7-4.8c0-1.9,0.4-4.3,3.4-4.3c3.1,0,3.4,2.4,3.4,4.3
	c0,2.8-1.2,4.3-1.7,4.8c-0.1,0.1-0.2,0.3-0.2,0.4c0,0.4,0.3,0.8,0.8,0.8h0.8C33.6,328.3,35.1,329.7,35.1,331.5z M51.2,311.5H20.5
	c-2.2,0-4.1,1.8-4.1,4.1v20c0,2.2,1.8,4.1,4.1,4.1h30.7c2.2,0,4.1-1.8,4.1-4.1v-20C55.4,313.4,53.4,311.5,51.2,311.5z M52.2,335.6
	c0,0.6-0.5,1.1-1.1,1.1H20.4c-0.6,0-1.1-0.5-1.1-1.1v-19.5c0-0.6,0.5-1.1,1.1-1.1h30.7c0.6,0,1.1,0.5,1.1,1.1
	C52.2,316.1,52.2,335.6,52.2,335.6z"/>
<path id="VCardIconBlack" class="icon-black show_on_light" d="M49.6,319.5c0-0.9-0.7-1.6-1.6-1.6h-8c-0.9,0-1.6,0.7-1.6,1.6s0.7,1.6,1.6,1.6h7.9
	C48.8,321.2,49.6,320.4,49.6,319.5z M49.6,331.9c0-0.9-0.7-1.6-1.6-1.6h-8c-0.9,0-1.6,0.7-1.6,1.6s0.7,1.6,1.6,1.6h7.9
	C48.8,333.5,49.6,332.8,49.6,331.9z M49.6,325.6c0-0.9-0.7-1.6-1.6-1.6h-8c-0.9,0-1.6,0.7-1.6,1.6s0.7,1.6,1.6,1.6h7.9
	C48.8,327.2,49.6,326.5,49.6,325.6z M35.1,331.5v0.9c0,0.6-0.5,1-1,1H23.2c-0.6,0-1-0.5-1-1v-0.9c0-1.8,1.5-3.3,3.3-3.3h0.8
	c0.5,0,0.8-0.4,0.8-0.8c0-0.2-0.1-0.3-0.2-0.4c-0.5-0.5-1.7-1.9-1.7-4.8c0-1.9,0.4-4.3,3.4-4.3c3.1,0,3.4,2.4,3.4,4.3
	c0,2.8-1.2,4.3-1.7,4.8c-0.1,0.1-0.2,0.3-0.2,0.4c0,0.4,0.3,0.8,0.8,0.8h0.8C33.6,328.3,35.1,329.7,35.1,331.5z M51.2,311.5H20.5
	c-2.2,0-4.1,1.8-4.1,4.1v20c0,2.2,1.8,4.1,4.1,4.1h30.7c2.2,0,4.1-1.8,4.1-4.1v-20C55.4,313.4,53.4,311.5,51.2,311.5z M52.2,335.6
	c0,0.6-0.5,1.1-1.1,1.1H20.4c-0.6,0-1.1-0.5-1.1-1.1v-19.5c0-0.6,0.5-1.1,1.1-1.1h30.7c0.6,0,1.1,0.5,1.1,1.1
	C52.2,316.1,52.2,335.6,52.2,335.6z"/>
	<svg id="TextArea" x="70" y="295" width="180" height="62" viewBox="0 0 53.044921875 17.588541666667" preserveAspectRatio="xMidYMid meet">
<svg version="1.1" xmlns="http://www.w3.org/2000/svg"><path class="text-color" fill="#FFFFFF" d=" M8.37890625,11.09130859375q0,1.02587890625-0.7412109375,1.61669921875t-2.0625,0.5908203125q-1.396484375,0-2.1591796875-0.37060546875l0-0.9453125q0.49951171875,0.21484375,1.093017578125,0.33837890625t1.109130859375,0.12353515625q0.880859375,0,1.32666015625-0.33837890625t0.44580078125-0.92919921875q0-0.39208984375-0.1611328125-0.64453125t-0.539794921875-0.47265625t-1.146728515625-0.49951171875q-1.09033203125-0.3974609375-1.5576171875-0.937255859375t-0.46728515625-1.393798828125q0-0.91845703125,0.690185546875-1.4609375t1.818115234375-0.54248046875q1.17626953125,0,2.16455078125,0.4404296875l-0.30615234375,0.8486328125q-1.009765625-0.4189453125-1.8798828125-0.4189453125q-0.6982421875,0-1.093017578125,0.30078125t-0.394775390625,0.84326171875q0,0.38671875,0.153076171875,0.641845703125t0.494140625,0.464599609375t1.071533203125,0.47802734375q0.87548828125,0.322265625,1.30517578125,0.625732421875t0.6337890625,0.6982421875t0.2041015625,0.942626953125z M13.32568359375,6.09619140625q-1.267578125,0-1.99267578125,0.8486328125t-0.72509765625,2.3203125q0,1.52001953125,0.70361328125,2.344482421875t2.00341796875,0.824462890625q0.837890625,0,1.88525390625-0.3115234375l0,0.859375q-0.49951171875,0.1826171875-0.96142578125,0.249755859375t-1.0634765625,0.067138671875q-1.73486328125,0-2.672119140625-1.055419921875t-0.937255859375-2.989013671875q0-1.2138671875,0.448486328125-2.126953125t1.30517578125-1.4072265625t2.016845703125-0.494140625q1.24609375,0,2.169921875,0.4619140625l-0.3974609375,0.837890625q-0.93994140625-0.4296875-1.783203125-0.4296875z M21.8388671875,13.19140625l-0.9453125-2.43310546875l-3.115234375,0l-0.9345703125,2.43310546875l-0.9990234375,0l3.06689453125-7.884765625l0.8916015625,0l3.0615234375,7.884765625l-1.02587890625,0z M20.59814453125,9.8828125l-0.880859375-2.37939453125l-0.3759765625-1.17626953125q-0.1611328125,0.64453125-0.33837890625,1.17626953125l-0.8916015625,2.37939453125l2.48681640625,0z M30.16943359375,13.19140625l-1.15478515625,0l-4.20556640625-6.5205078125l-0.04296875,0l0.02685546875,0.43505859375q0.064453125,0.9775390625,0.064453125,1.697265625l0,4.38818359375l-0.9130859375,0l0-7.8525390625l1.14404296875,0l0.24169921875,0.38134765625l2.578125,3.9853515625l1.36962890625,2.13232421875l0.04296875,0q-0.0107421875-0.12890625-0.04296875-0.921142578125t-0.0322265625-1.146728515625l0-4.43115234375l0.923828125,0l0,7.8525390625z  M38.62353515625,13.19140625l-2.5888671875-6.8857421875l-0.04296875,0q0.08056640625,0.859375,0.08056640625,2.12158203125l0,4.76416015625l-0.9130859375,0l0-7.8525390625l1.4609375,0l2.42236328125,6.4345703125l0.04296875,0l2.46533203125-6.4345703125l1.4501953125,0l0,7.8525390625l-0.9775390625,0l0-4.82861328125q0-0.8056640625,0.0751953125-2.04638671875l-0.04296875,0l-2.62109375,6.875l-0.81103515625,0z M49.52685546875,13.19140625l-4.38818359375,0l0-7.8525390625l4.38818359375,0l0,0.8701171875l-3.39990234375,0l0,2.44921875l3.201171875,0l0,0.859375l-3.201171875,0l0,2.8037109375l3.39990234375,0l0,0.8701171875z "/></svg>
</svg>

</svg>
