<?xml version="1.0" standalone="no"?>
<!DOCTYPE svg PUBLIC "-//W3C//DTD SVG 20010904//EN"
 "http://www.w3.org/TR/2001/REC-SVG-20010904/DTD/svg10.dtd">
<svg version="1.0" xmlns="http://www.w3.org/2000/svg"
 width="720.000000pt" height="720.000000pt" viewBox="0 0 720.000000 720.000000"
 preserveAspectRatio="xMidYMid meet">
<metadata>
Created by potrace 1.16, written by Peter Selinger 2001-2019
</metadata>
<g transform="translate(0.000000,720.000000) scale(0.100000,-0.100000)"
fill="#ffffff" stroke="none">
<path d="M3611 7117 c-53 -86 -165 -163 -371 -257 -350 -159 -489 -245 -646
-404 -60 -61 -134 -147 -163 -191 -148 -225 -244 -521 -285 -874 -9 -74 -15
-135 -13 -136 1 -1 52 -28 114 -59 351 -179 802 -559 1141 -963 42 -50 79 -92
82 -92 3 -1 36 305 74 679 79 789 78 772 82 767 2 -2 33 -325 69 -718 36 -393
66 -718 68 -723 1 -4 34 27 72 70 109 125 380 397 495 498 242 213 494 386
730 501 l56 27 -8 87 c-42 487 -187 855 -438 1115 -146 151 -293 247 -594 388
-265 124 -354 183 -414 273 l-30 45 -21 -33z m18 -179 c-30 -55 -150 -163
-349 -312 -417 -311 -605 -541 -713 -871 -49 -148 -86 -357 -87 -482 0 -35 -4
-63 -10 -63 -5 0 -55 26 -110 57 -115 66 -109 52 -85 216 74 491 268 835 591
1050 55 37 177 103 270 147 291 139 369 180 435 230 35 27 65 49 67 50 1 0 -3
-10 -9 -22z"/>
<path d="M1151 5295 c-219 -33 -459 -106 -756 -227 -217 -89 -350 -138 -377
-138 -17 0 -19 -4 -14 -32 3 -18 17 -118 31 -223 120 -901 339 -1395 735
-1655 324 -212 895 -404 1405 -472 109 -14 575 -18 636 -5 33 7 42 16 84 90
43 75 46 84 35 112 -45 113 -62 187 -67 280 -5 95 -1 122 34 271 4 17 -5 27
-44 51 -26 17 -320 198 -653 403 -333 204 -609 377 -615 383 -7 6 -7 8 0 5 6
-3 338 -135 738 -292 l728 -287 75 60 c116 94 241 146 396 166 l48 6 -63 81
c-271 351 -599 692 -882 918 -320 256 -641 424 -940 492 -118 27 -398 33 -534
13z m360 -106 c350 -35 723 -221 1124 -558 189 -159 471 -450 658 -677 l67
-82 -27 -7 c-47 -11 -186 -81 -235 -119 l-46 -36 -114 138 c-402 484 -789 814
-1183 1007 -264 130 -397 164 -661 172 -200 6 -313 -4 -500 -43 -182 -37 -185
-37 -94 1 261 110 584 193 805 208 28 2 62 4 76 5 15 1 73 -3 130 -9z"/>
<path d="M5570 5233 c-47 -8 -145 -34 -218 -58 -511 -170 -1058 -611 -1605
-1295 l-116 -145 42 -7 c188 -34 297 -79 409 -173 l67 -56 218 86 c120 47 286
113 368 145 83 32 292 115 465 183 427 169 429 170 403 151 -13 -9 -310 -193
-660 -409 -561 -346 -638 -396 -637 -417 1 -12 9 -57 19 -98 31 -135 13 -283
-55 -455 -11 -28 -8 -36 34 -110 27 -46 55 -83 69 -88 39 -16 405 -21 543 -8
383 36 781 137 1148 292 437 185 640 367 816 734 133 277 212 581 280 1075 17
124 33 239 36 256 5 29 4 31 -30 37 -20 3 -166 58 -324 121 -378 151 -601 217
-832 246 -118 14 -339 11 -440 -7z m366 -104 c216 -21 432 -76 696 -177 81
-31 146 -57 144 -59 -1 -2 -52 8 -112 22 -196 44 -339 57 -549 52 -123 -3
-216 -11 -264 -22 -511 -115 -1049 -507 -1589 -1157 l-113 -137 -46 35 c-54
41 -160 96 -220 114 l-42 13 66 81 c534 651 1117 1090 1598 1206 162 38 266
45 431 29z m-621 -1727 c-23 -20 -825 -602 -830 -602 -3 0 -4 59 -3 131 l3
131 415 174 c228 95 417 173 420 174 2 0 0 -4 -5 -8z"/>
<path d="M3470 3564 c-296 -80 -483 -367 -429 -658 6 -32 15 -70 20 -83 l9
-25 58 53 c91 83 209 150 307 173 73 18 185 24 259 15 154 -19 277 -77 397
-188 l67 -60 16 57 c25 91 22 234 -9 329 -60 189 -216 337 -410 388 -74 19
-212 18 -285 -1z"/>
<path d="M3380 2850 c-203 -97 -370 -331 -484 -680 -135 -413 -192 -942 -127
-1168 40 -136 128 -286 240 -405 68 -72 176 -160 355 -287 87 -62 176 -130
196 -150 l38 -38 45 42 c25 23 94 75 154 116 344 235 485 373 583 575 77 157
85 198 84 420 0 207 -15 343 -64 585 -88 439 -247 768 -445 917 -51 39 -175
106 -182 99 -2 -2 -37 -267 -78 -591 -41 -323 -77 -590 -80 -593 -3 -3 -5 6
-5 19 -1 13 -31 280 -68 594 -54 458 -70 570 -82 573 -8 1 -44 -12 -80 -28z"/>
<path d="M1214 2543 c-183 -220 -328 -523 -412 -863 -37 -149 -70 -348 -74
-445 l-3 -69 120 -63 c591 -307 1163 -344 1672 -107 l95 44 -6 32 c-21 118
-27 205 -22 318 13 239 48 479 102 694 14 54 23 100 21 103 -3 2 -242 -120
-532 -272 -290 -152 -529 -275 -530 -273 -1 2 199 167 444 368 l446 365 -110
7 c-351 22 -679 83 -1006 188 -70 22 -132 40 -138 40 -6 0 -36 -30 -67 -67z
m806 -236 l65 -13 -40 -26 c-22 -14 -113 -73 -202 -131 -89 -58 -201 -131
-250 -162 l-88 -57 200 201 c219 221 201 209 315 188z m450 -1054 c0 -43 3
-94 6 -113 l6 -36 -89 -36 c-184 -75 -358 -108 -568 -108 -229 0 -449 44 -685
137 -102 40 -214 93 -167 79 306 -94 673 -114 961 -55 159 33 368 112 481 182
22 14 43 26 48 26 4 1 7 -34 7 -76z"/>
<path d="M5855 2534 c-86 -33 -350 -105 -487 -133 -189 -39 -337 -60 -537 -74
l-164 -12 445 -365 c245 -201 445 -366 443 -367 -1 -2 -239 121 -529 273 -290
152 -530 274 -532 271 -3 -3 6 -49 20 -103 54 -215 88 -451 102 -699 5 -107
-1 -195 -22 -312 -6 -31 -5 -32 80 -72 499 -237 1054 -209 1637 82 l164 82 -3
70 c-11 258 -115 654 -243 923 -92 194 -274 453 -317 451 -9 0 -35 -7 -57 -15z
m-360 -475 l200 -201 -150 97 c-82 54 -213 139 -290 189 l-140 91 60 11 c120
23 99 35 320 -187z m-739 -798 c18 -18 210 -109 284 -136 212 -75 386 -100
653 -92 160 5 216 11 338 36 80 17 159 35 174 41 15 6 30 9 32 7 2 -3 -34 -20
-79 -40 -286 -122 -526 -177 -781 -177 -204 0 -372 32 -561 106 l-98 39 6 35
c3 19 6 70 6 113 0 74 5 88 26 68z"/>
</g>
</svg>
